# Created by FreeCAD <http://www.freecadweb.org>
v -25.980381 -14.999340 0.000000
v -25.980000 -14.998680 0.001320
v -25.979239 -15.000000 0.000000
v -17.897858 -1.000000 0.000000
v -12.980762 7.516661 22.516661
v -9.814955 -15.000000 0.000000
v -0.018476 -15.000000 22.482679
v -0.018476 -0.009787 44.967999
v -0.018476 0.032881 44.967999
v -0.018476 29.967999 0.065322
v -0.006159 0.011547 44.989334
v -0.000000 30.000000 0.001320
v 0.000000 30.000000 0.000000
v 0.018476 0.011547 44.967999
v 0.577350 -15.000000 0.000000
v 12.990000 7.500660 22.500660
v 13.279057 7.000000 0.000000
v 25.942286 -15.000000 0.000000
v 25.961525 -14.966679 0.033321
v 25.971144 -14.983339 0.000000
vn -0.866029 0.499994 0.000000
vn -0.866025 0.500000 -0.000000
vn -0.866025 0.500000 0.000004
vn -0.866025 0.500000 -0.000000
vn -0.866025 0.500000 0.000296
vn -0.000000 0.000000 -1.000000
vn -0.000000 0.000000 -1.000000
vn -0.000000 -0.000000 -1.000000
vn 0.000000 0.000000 -1.000000
vn 0.000000 0.000000 -1.000000
vn -0.433149 -0.749873 0.500073
vn -0.433103 -0.749878 0.500104
vn -0.433013 -0.750000 0.500000
vn -0.866042 0.000000 0.499972
vn -0.866025 0.000000 0.500000
vn -0.866025 -0.000000 0.500000
vn -0.433013 0.750000 0.500000
vn 0.433021 0.750014 0.499972
vn 0.433013 0.750000 0.500000
vn 0.433013 0.750000 0.500000
vn 0.433029 0.749991 0.500000
vn 0.866025 0.500000 -0.000008
vn 0.866025 0.500000 0.000000
vn 0.866025 0.500000 0.000000
vn 0.866025 0.500000 0.000000
vn -0.000000 0.000000 -1.000000
vn 0.000000 0.000000 -1.000000
vn 0.000000 -1.000000 0.000000
vn 0.000000 -1.000000 -0.000000
vn 0.000000 -1.000000 0.000000
vn 0.433021 -0.750014 0.499972
vn 0.433013 -0.750000 0.500000
vn 0.433013 -0.750000 0.500000
vn 0.433006 -0.750009 0.499992
vn 0.433001 -0.750006 0.500001
vn 0.866025 0.000000 0.500000
f 10//1 12//1 13//1
f 5//2 10//2 4//2
f 10//3 13//3 4//3
f 5//4 4//4 2//4
f 2//5 4//5 1//5
f 6//6 4//6 15//6
f 15//7 4//7 17//7
f 17//8 4//8 13//8
f 6//9 3//9 4//9
f 3//10 1//10 4//10
f 3//11 2//11 1//11
f 3//12 7//12 2//12
f 7//13 8//13 2//13
f 9//14 8//14 11//14
f 9//15 5//15 8//15
f 5//16 2//16 8//16
f 5//17 9//17 10//17
f 14//18 9//18 11//18
f 14//19 16//19 9//19
f 16//20 10//20 9//20
f 16//21 12//21 10//21
f 19//22 20//22 17//22
f 16//23 19//23 17//23
f 16//24 17//24 12//24
f 12//25 17//25 13//25
f 20//26 18//26 17//26
f 18//27 15//27 17//27
f 7//28 3//28 6//28
f 7//29 6//29 15//29
f 7//30 15//30 18//30
f 8//31 14//31 11//31
f 8//32 7//32 14//32
f 7//33 19//33 14//33
f 7//34 18//34 19//34
f 18//35 20//35 19//35
f 16//36 14//36 19//36
